<svg width="365" height="365" viewBox="0 0 365 365" fill="none" xmlns="http://www.w3.org/2000/svg">
<circle cx="182.5" cy="182.5" r="182.5" fill="white"/>
<path d="M111.64 225H74.264V203.368H111.64C116.76 203.368 120.813 202.941 123.8 202.088C126.787 201.235 128.92 199.315 130.2 196.328C131.48 193.256 132.12 188.52 132.12 182.12C132.12 175.635 131.48 170.899 130.2 167.912C128.92 164.925 126.787 163.005 123.8 162.152C120.813 161.299 116.76 160.872 111.64 160.872H74.264V139.24H111.64C121.112 139.24 129.304 140.947 136.216 144.36C143.128 147.688 148.461 152.552 152.216 158.952C155.971 165.352 157.848 173.075 157.848 182.12C157.848 191.165 155.971 198.888 152.216 205.288C148.461 211.688 143.128 216.595 136.216 220.008C129.304 223.336 121.112 225 111.64 225ZM92.312 225H68.248V139.24H92.312V225Z" fill="black"/>
<path d="M263.64 225H226.264V203.368H263.64C268.76 203.368 272.813 202.941 275.8 202.088C278.787 201.235 280.92 199.315 282.2 196.328C283.48 193.256 284.12 188.52 284.12 182.12C284.12 175.635 283.48 170.899 282.2 167.912C280.92 164.925 278.787 163.005 275.8 162.152C272.813 161.299 268.76 160.872 263.64 160.872H226.264V139.24H263.64C273.112 139.24 281.304 140.947 288.216 144.36C295.128 147.688 300.461 152.552 304.216 158.952C307.971 165.352 309.848 173.075 309.848 182.12C309.848 191.165 307.971 198.888 304.216 205.288C300.461 211.688 295.128 216.595 288.216 220.008C281.304 223.336 273.112 225 263.64 225ZM244.312 225H220.248V139.24H244.312V225Z" fill="black"/>
<path d="M205.36 242.024H159.28V225H205.36V242.024Z" fill="black"/>
</svg>
