<svg width="1574" height="365" viewBox="0 0 1574 365" fill="none" xmlns="http://www.w3.org/2000/svg">
<circle cx="182.5" cy="182.5" r="182.5" fill="white"/>
<path d="M111.64 218H74.264V196.368H111.64C116.76 196.368 120.813 195.941 123.8 195.088C126.787 194.235 128.92 192.315 130.2 189.328C131.48 186.256 132.12 181.52 132.12 175.12C132.12 168.635 131.48 163.899 130.2 160.912C128.92 157.925 126.787 156.005 123.8 155.152C120.813 154.299 116.76 153.872 111.64 153.872H74.264V132.24H111.64C121.112 132.24 129.304 133.947 136.216 137.36C143.128 140.688 148.461 145.552 152.216 151.952C155.971 158.352 157.848 166.075 157.848 175.12C157.848 184.165 155.971 191.888 152.216 198.288C148.461 204.688 143.128 209.595 136.216 213.008C129.304 216.336 121.112 218 111.64 218ZM92.312 218H68.248V132.24H92.312V218Z" fill="black"/>
<path d="M263.64 218H226.264V196.368H263.64C268.76 196.368 272.813 195.941 275.8 195.088C278.787 194.235 280.92 192.315 282.2 189.328C283.48 186.256 284.12 181.52 284.12 175.12C284.12 168.635 283.48 163.899 282.2 160.912C280.92 157.925 278.787 156.005 275.8 155.152C272.813 154.299 268.76 153.872 263.64 153.872H226.264V132.24H263.64C273.112 132.24 281.304 133.947 288.216 137.36C295.128 140.688 300.461 145.552 304.216 151.952C307.971 158.352 309.848 166.075 309.848 175.12C309.848 184.165 307.971 191.888 304.216 198.288C300.461 204.688 295.128 209.595 288.216 213.008C281.304 216.336 273.112 218 263.64 218ZM244.312 218H220.248V132.24H244.312V218Z" fill="black"/>
<path d="M205.36 235.024H159.28V218H205.36V235.024Z" fill="black"/>
<path d="M455.64 218H418.264V196.368H455.64C460.76 196.368 464.813 195.941 467.8 195.088C470.787 194.235 472.92 192.315 474.2 189.328C475.48 186.256 476.12 181.52 476.12 175.12C476.12 168.635 475.48 163.899 474.2 160.912C472.92 157.925 470.787 156.005 467.8 155.152C464.813 154.299 460.76 153.872 455.64 153.872H418.264V132.24H455.64C465.112 132.24 473.304 133.947 480.216 137.36C487.128 140.688 492.461 145.552 496.216 151.952C499.971 158.352 501.848 166.075 501.848 175.12C501.848 184.165 499.971 191.888 496.216 198.288C492.461 204.688 487.128 209.595 480.216 213.008C473.304 216.336 465.112 218 455.64 218ZM436.312 218H412.248V132.24H436.312V218ZM544.183 219.28C536.93 219.28 530.487 218.171 524.855 215.952C519.223 213.733 514.828 210.149 511.671 205.2C508.514 200.251 506.935 193.765 506.935 185.744C506.935 178.747 508.514 172.773 511.671 167.824C514.828 162.789 519.138 158.949 524.599 156.304C530.146 153.573 536.503 152.208 543.671 152.208C551.095 152.208 557.538 153.445 562.999 155.92C568.46 158.309 572.684 161.893 575.671 166.672C578.658 171.365 580.151 177.168 580.151 184.08C580.151 185.189 580.108 186.213 580.023 187.152C580.023 188.005 579.938 189.029 579.767 190.224H522.679V178.064H562.359L557.111 185.616C557.111 184.848 557.111 184.123 557.111 183.44C557.111 182.672 557.111 181.904 557.111 181.136C557.111 177.211 556.087 174.48 554.039 172.944C552.076 171.408 548.45 170.64 543.159 170.64C537.698 170.64 533.986 171.493 532.023 173.2C530.146 174.907 529.207 177.979 529.207 182.416V188.56C529.207 193.083 530.188 196.155 532.151 197.776C534.114 199.397 537.826 200.208 543.287 200.208C548.151 200.208 551.394 199.781 553.015 198.928C554.722 197.989 555.575 196.581 555.575 194.704V193.296H579.639V194.832C579.639 199.611 578.188 203.835 575.287 207.504C572.386 211.173 568.29 214.075 562.999 216.208C557.708 218.256 551.436 219.28 544.183 219.28ZM640.478 218H610.782L582.11 153.488H608.99L625.118 194.576H626.782L643.038 153.488H669.406L640.478 218ZM708.558 219.28C701.305 219.28 694.862 218.171 689.23 215.952C683.598 213.733 679.203 210.149 676.046 205.2C672.889 200.251 671.31 193.765 671.31 185.744C671.31 178.747 672.889 172.773 676.046 167.824C679.203 162.789 683.513 158.949 688.974 156.304C694.521 153.573 700.878 152.208 708.046 152.208C715.47 152.208 721.913 153.445 727.374 155.92C732.835 158.309 737.059 161.893 740.046 166.672C743.033 171.365 744.526 177.168 744.526 184.08C744.526 185.189 744.483 186.213 744.398 187.152C744.398 188.005 744.313 189.029 744.142 190.224H687.054V178.064H726.734L721.486 185.616C721.486 184.848 721.486 184.123 721.486 183.44C721.486 182.672 721.486 181.904 721.486 181.136C721.486 177.211 720.462 174.48 718.414 172.944C716.451 171.408 712.825 170.64 707.534 170.64C702.073 170.64 698.361 171.493 696.398 173.2C694.521 174.907 693.582 177.979 693.582 182.416V188.56C693.582 193.083 694.563 196.155 696.526 197.776C698.489 199.397 702.201 200.208 707.662 200.208C712.526 200.208 715.769 199.781 717.39 198.928C719.097 197.989 719.95 196.581 719.95 194.704V193.296H744.014V194.832C744.014 199.611 742.563 203.835 739.662 207.504C736.761 211.173 732.665 214.075 727.374 216.208C722.083 218.256 715.811 219.28 708.558 219.28ZM775.029 218H750.965V132.24H775.029V218ZM818.427 219.28C811.003 219.28 804.432 217.957 798.715 215.312C793.083 212.581 788.688 208.699 785.531 203.664C782.374 198.629 780.795 192.656 780.795 185.744C780.795 178.747 782.374 172.773 785.531 167.824C788.688 162.789 793.083 158.949 798.715 156.304C804.432 153.573 811.003 152.208 818.427 152.208C825.936 152.208 832.507 153.573 838.139 156.304C843.771 158.949 848.166 162.789 851.323 167.824C854.48 172.773 856.059 178.747 856.059 185.744C856.059 192.656 854.48 198.629 851.323 203.664C848.166 208.699 843.771 212.581 838.139 215.312C832.507 217.957 825.936 219.28 818.427 219.28ZM818.427 198.032C823.888 198.032 827.558 197.179 829.435 195.472C831.312 193.68 832.251 190.437 832.251 185.744C832.251 181.051 831.312 177.808 829.435 176.016C827.558 174.224 823.888 173.328 818.427 173.328C812.966 173.328 809.296 174.224 807.419 176.016C805.542 177.808 804.603 181.051 804.603 185.744C804.603 190.437 805.542 193.68 807.419 195.472C809.296 197.179 812.966 198.032 818.427 198.032ZM911.504 219.28C903.909 219.28 898.192 217.659 894.352 214.416C890.512 211.088 888.123 206.736 887.184 201.36H883.472V186.512H885.904C885.904 189.499 886.459 191.803 887.568 193.424C888.763 194.96 890.512 196.027 892.816 196.624C895.205 197.136 898.192 197.392 901.776 197.392C905.531 197.392 908.475 197.008 910.608 196.24C912.827 195.472 914.405 194.235 915.344 192.528C916.283 190.821 916.752 188.56 916.752 185.744C916.752 182.843 916.283 180.581 915.344 178.96C914.405 177.253 912.827 176.059 910.608 175.376C908.475 174.608 905.531 174.224 901.776 174.224C896.4 174.224 892.389 174.949 889.744 176.4C887.184 177.851 885.904 180.923 885.904 185.616H883.472L881.68 170.896H885.648C886.672 164.496 889.189 159.803 893.2 156.816C897.211 153.744 902.971 152.208 910.48 152.208C917.051 152.208 922.597 153.573 927.12 156.304C931.728 158.949 935.184 162.789 937.488 167.824C939.877 172.773 941.072 178.747 941.072 185.744C941.072 192.741 939.92 198.757 937.616 203.792C935.312 208.741 931.941 212.581 927.504 215.312C923.152 217.957 917.819 219.28 911.504 219.28ZM885.904 239.76H861.84V153.488H884.368V171.664L885.904 173.328V239.76ZM983.433 219.28C976.18 219.28 969.737 218.171 964.105 215.952C958.473 213.733 954.078 210.149 950.921 205.2C947.764 200.251 946.185 193.765 946.185 185.744C946.185 178.747 947.764 172.773 950.921 167.824C954.078 162.789 958.388 158.949 963.849 156.304C969.396 153.573 975.753 152.208 982.921 152.208C990.345 152.208 996.788 153.445 1002.25 155.92C1007.71 158.309 1011.93 161.893 1014.92 166.672C1017.91 171.365 1019.4 177.168 1019.4 184.08C1019.4 185.189 1019.36 186.213 1019.27 187.152C1019.27 188.005 1019.19 189.029 1019.02 190.224H961.929V178.064H1001.61L996.361 185.616C996.361 184.848 996.361 184.123 996.361 183.44C996.361 182.672 996.361 181.904 996.361 181.136C996.361 177.211 995.337 174.48 993.289 172.944C991.326 171.408 987.7 170.64 982.409 170.64C976.948 170.64 973.236 171.493 971.273 173.2C969.396 174.907 968.457 177.979 968.457 182.416V188.56C968.457 193.083 969.438 196.155 971.401 197.776C973.364 199.397 977.076 200.208 982.537 200.208C987.401 200.208 990.644 199.781 992.265 198.928C993.972 197.989 994.825 196.581 994.825 194.704V193.296H1018.89V194.832C1018.89 199.611 1017.44 203.835 1014.54 207.504C1011.64 211.173 1007.54 214.075 1002.25 216.208C996.958 218.256 990.686 219.28 983.433 219.28ZM1049.9 218H1025.84V153.488H1048.37V171.92L1049.9 172.56V218ZM1049.9 179.472H1045.42V170.384H1049.65C1050.25 166.8 1051.4 163.643 1053.1 160.912C1054.81 158.181 1057.11 156.048 1060.02 154.512C1063 152.976 1066.63 152.208 1070.9 152.208C1075.67 152.208 1079.51 153.189 1082.42 155.152C1085.32 157.029 1087.41 159.632 1088.69 162.96C1090.05 166.288 1090.74 170.128 1090.74 174.48V187.28H1066.67V179.728C1066.67 176.997 1066.07 175.12 1064.88 174.096C1063.69 172.987 1061.51 172.432 1058.35 172.432C1055.11 172.432 1052.89 172.987 1051.7 174.096C1050.5 175.12 1049.9 176.912 1049.9 179.472ZM1158.52 218H1121.14V196.368H1158.52C1163.64 196.368 1167.69 195.941 1170.68 195.088C1173.66 194.235 1175.8 192.315 1177.08 189.328C1178.36 186.256 1179 181.52 1179 175.12C1179 168.635 1178.36 163.899 1177.08 160.912C1175.8 157.925 1173.66 156.005 1170.68 155.152C1167.69 154.299 1163.64 153.872 1158.52 153.872H1121.14V132.24H1158.52C1167.99 132.24 1176.18 133.947 1183.09 137.36C1190 140.688 1195.34 145.552 1199.09 151.952C1202.85 158.352 1204.72 166.075 1204.72 175.12C1204.72 184.165 1202.85 191.888 1199.09 198.288C1195.34 204.688 1190 209.595 1183.09 213.008C1176.18 216.336 1167.99 218 1158.52 218ZM1139.19 218H1115.12V132.24H1139.19V218ZM1232.98 218H1205.97L1242.96 132.24H1277.39L1314.51 218H1286.87L1266.51 168.464L1260.88 154H1259.22L1253.71 168.464L1232.98 218ZM1291.09 202.128H1227.86V180.496H1291.09V202.128ZM1363.3 219.28C1353.4 219.28 1344.87 217.488 1337.7 213.904C1330.62 210.235 1325.2 205.115 1321.44 198.544C1317.69 191.888 1315.81 184.08 1315.81 175.12C1315.81 166.16 1317.69 158.395 1321.44 151.824C1325.2 145.168 1330.62 140.048 1337.7 136.464C1344.87 132.795 1353.4 130.96 1363.3 130.96C1373.54 130.96 1382.2 132.795 1389.28 136.464C1396.45 140.048 1401.91 145.168 1405.67 151.824C1409.42 158.395 1411.3 166.16 1411.3 175.12C1411.3 184.08 1409.42 191.888 1405.67 198.544C1401.91 205.115 1396.45 210.235 1389.28 213.904C1382.2 217.488 1373.54 219.28 1363.3 219.28ZM1363.3 196.24C1369.1 196.24 1373.62 195.685 1376.87 194.576C1380.11 193.381 1382.37 191.248 1383.65 188.176C1385.02 185.104 1385.7 180.752 1385.7 175.12C1385.7 169.403 1385.02 165.051 1383.65 162.064C1382.37 158.992 1380.11 156.901 1376.87 155.792C1373.62 154.597 1369.1 154 1363.3 154C1357.5 154 1353.02 154.597 1349.86 155.792C1346.7 156.901 1344.48 158.992 1343.2 162.064C1342.01 165.051 1341.41 169.403 1341.41 175.12C1341.41 180.752 1342.01 185.104 1343.2 188.176C1344.48 191.248 1346.7 193.381 1349.86 194.576C1353.02 195.685 1357.5 196.24 1363.3 196.24Z" fill="white"/>
</svg>
