<svg width="860" height="241" viewBox="0 0 860 241" fill="none" xmlns="http://www.w3.org/2000/svg">
<g clip-path="url(#clip0_25_1152)">
<path d="M220 68.74V126.53L169.63 155.27L150.1 143.97V120.72L169.8 132.18L199.66 114.75V80.36L169.8 63.09L139.93 80.36V172.54L90.05 201.44L40 172.54V115.07L89.88 86.01L109.74 97.31V120.72L90.04 109.26L60.17 126.37V160.92L90.04 178.19L119.74 160.92V68.74L169.63 40L220 68.74Z" fill="white"/>
<path d="M739.24 162.45V78.9899H759.43V113.46C759.43 106.57 760.32 100.83 762.09 96.2399C763.86 91.5399 766.26 87.7899 769.29 84.9699C772.42 82.1499 775.97 80.1699 779.93 79.0199C783.9 77.7699 788.07 77.1399 792.45 77.1399C797.35 77.1399 801.53 78.1799 804.97 80.2699C808.52 82.3599 811.39 85.1699 813.58 88.7199C815.77 92.2699 817.39 96.3399 818.43 100.93C819.47 105.52 820 110.27 820 115.17V162.44H799.65V119.24C799.65 116.11 799.39 112.98 798.87 109.85C798.35 106.62 797.41 103.75 796.05 101.24C794.8 98.7399 793.08 96.6999 790.88 95.1399C788.69 93.5699 785.87 92.7899 782.43 92.7899C778.67 92.7899 775.39 93.6199 772.57 95.2899C769.75 96.9599 767.35 99.3099 765.37 102.33C763.39 105.25 761.87 108.75 760.83 112.82C759.89 116.89 759.42 121.27 759.42 125.97V162.44H739.23L739.24 162.45Z" fill="white"/>
<path d="M685.62 77.1499C692.09 77.1499 697.93 78.1899 703.15 80.2799C708.47 82.3699 713.01 85.3399 716.77 89.1999C720.53 93.0599 723.4 97.6499 725.38 102.97C727.47 108.29 728.51 114.24 728.51 120.81C728.51 127.38 727.47 133.18 725.38 138.5C723.4 143.82 720.53 148.41 716.77 152.27C713.01 156.03 708.47 158.95 703.15 161.04C697.93 163.13 692.09 164.17 685.62 164.17C679.15 164.17 673.46 163.13 668.25 161.04C663.03 158.95 658.55 156.03 654.79 152.27C651.03 148.41 648.11 143.82 646.02 138.5C643.93 133.18 642.89 127.28 642.89 120.81C642.89 114.34 643.93 108.29 646.02 102.97C648.11 97.6499 651.03 93.0599 654.79 89.1999C658.55 85.3399 663.03 82.3699 668.25 80.2799C673.47 78.1899 679.26 77.1499 685.62 77.1499ZM663.87 121.29C663.87 129.64 665.54 136.26 668.88 141.17C672.22 146.07 677.33 148.53 684.22 148.53C687.66 148.53 690.79 147.85 693.61 146.5C696.43 145.14 698.83 143.27 700.81 140.87C702.79 138.47 704.31 135.6 705.35 132.26C706.5 128.82 707.07 125.01 707.07 120.83C707.07 116.65 706.5 112.9 705.35 109.56C704.31 106.12 702.79 103.19 700.81 100.79C698.83 98.2899 696.43 96.4099 693.61 95.1599C690.79 93.7999 687.66 93.1299 684.22 93.1299C680.78 93.1299 677.8 93.8099 675.3 95.1599C672.8 96.5199 670.66 98.4499 668.88 100.95C667.21 103.45 665.96 106.43 665.12 109.87C664.29 113.31 663.87 117.12 663.87 121.3V121.29Z" fill="white"/>
<path d="M614.72 148.12C620.12 148.12 624.68 148.59 628.42 149.52C632.16 150.35 635.17 151.65 637.45 153.41C639.73 155.07 641.34 157.09 642.27 159.48C643.31 161.97 643.83 164.77 643.83 167.89C643.83 171.83 643 175.46 641.34 178.78C639.68 182.2 636.88 185.16 632.94 187.65C629.1 190.14 623.96 192.06 617.53 193.41C611.2 194.86 603.26 195.59 593.71 195.59C581.47 195.59 571.97 193.93 565.23 190.61C558.48 187.29 555.11 183.04 555.11 177.85C555.11 173.49 557.24 170.07 561.49 167.58C565.85 165.09 572.23 163.84 580.64 163.84L579.24 164.93C572.18 164.93 566.89 163.63 563.36 161.04C559.83 158.45 558.07 155.38 558.07 151.86C558.07 148.85 558.85 146.26 560.4 144.08C562.06 141.9 564.29 140.08 567.09 138.63C570 137.18 573.47 136.14 577.52 135.52C581.57 134.79 586.08 134.43 591.06 134.43L579.7 133.5C573.89 131.11 569.43 127.53 566.31 122.76C563.3 117.99 561.8 112.8 561.8 107.19C561.8 102.83 562.68 98.84 564.45 95.2C566.21 91.46 568.65 88.2999 571.77 85.7099C574.99 83.0099 578.83 80.9399 583.29 79.4799C587.75 77.92 592.68 77.15 598.08 77.15C602.75 77.15 607.26 77.8199 611.62 79.1699C615.98 80.4199 619.82 82.33 623.14 84.93C626.56 87.42 629.26 90.53 631.23 94.27C633.2 98.01 634.19 102.31 634.19 107.19C634.19 111.55 633.31 115.6 631.54 119.33C629.88 122.96 627.44 126.13 624.22 128.82C621.11 131.41 617.32 133.44 612.86 134.89C608.4 136.34 603.47 137.07 598.07 137.07C594.33 137.07 591.01 136.86 588.11 136.45C585.2 135.93 582.4 134.95 579.71 133.49L600.72 134.11C598.02 134.11 595.27 134.21 592.47 134.42C589.77 134.63 587.28 134.99 585 135.51C582.72 136.03 580.8 136.76 579.24 137.69C577.68 138.62 576.7 139.82 576.28 141.27C575.76 143.35 576.33 145.01 577.99 146.25C579.65 147.5 582.5 148.12 586.55 148.12H614.72ZM581.62 105.63C581.62 111.37 583.08 116.01 586 119.56C589.03 123 593.04 124.73 598.05 124.73C603.06 124.73 607.02 123.01 609.95 119.56C612.87 116.01 614.33 111.37 614.33 105.63C614.33 99.8899 612.87 95.56 609.95 92.33C607.03 89.1 603.06 87.4799 598.05 87.4799C593.04 87.4799 589.02 89.1 586 92.33C583.08 95.56 581.62 99.9999 581.62 105.63ZM595.55 178.26C601.92 178.26 607.13 178.05 611.2 177.63C615.37 177.32 618.61 176.8 620.9 176.06C623.3 175.43 624.92 174.6 625.75 173.56C626.69 172.52 627.16 171.32 627.16 169.96C627.16 168.19 625.59 166.88 622.46 166.05C619.33 165.32 615.52 165.01 611.03 165.11L584.89 165.42C579.25 165.42 575.13 165.89 572.52 166.83C569.91 167.87 568.61 169.23 568.61 170.9C568.61 172.05 569.03 173.09 569.86 174.03C570.8 174.97 572.31 175.75 574.4 176.38C576.49 177.01 579.25 177.48 582.7 177.79C586.14 178.1 590.42 178.26 595.53 178.26H595.55ZM619.19 83.41L644.23 69.95V96.8699L619.19 83.41Z" fill="white"/>
<path d="M500.69 162.45L473.14 78.99H493.96L516.19 154.12L537.48 78.99H559.08L531.06 168.52C529.49 173.74 527.46 178.07 524.96 181.51C522.46 184.95 519.69 187.67 516.66 189.65C513.63 191.74 510.4 193.2 506.96 194.03C503.52 194.97 500.02 195.44 496.47 195.44C491.15 195.44 486.71 194.76 483.17 193.4C479.62 192.04 476.54 190.63 473.93 189.17V168.04C476.33 171.07 479.36 173.57 483.01 175.55C486.77 177.64 491.25 178.68 496.47 178.68C498.24 178.68 499.91 178.42 501.48 177.9C503.05 177.38 504.56 176.49 506.02 175.24C507.59 173.99 508.99 172.32 510.25 170.23C511.61 168.14 512.81 165.67 513.85 162.44H500.7L500.69 162.45Z" fill="white"/>
<path d="M464.69 162.45H444.5V47.4099H464.69V162.45Z" fill="white"/>
<path d="M392.61 77.1499C399.08 77.1499 404.92 78.1899 410.14 80.2799C415.46 82.3699 420 85.3399 423.76 89.1999C427.52 93.0599 430.39 97.6499 432.37 102.97C434.46 108.29 435.5 114.24 435.5 120.81C435.5 127.38 434.46 133.18 432.37 138.5C430.39 143.82 427.52 148.41 423.76 152.27C420 156.03 415.46 158.95 410.14 161.04C404.92 163.13 399.08 164.17 392.61 164.17C386.14 164.17 380.45 163.13 375.24 161.04C370.02 158.95 365.54 156.03 361.78 152.27C358.02 148.41 355.1 143.82 353.01 138.5C350.92 133.18 349.88 127.28 349.88 120.81C349.88 114.34 350.92 108.29 353.01 102.97C355.1 97.6499 358.02 93.0599 361.78 89.1999C365.54 85.3399 370.02 82.3699 375.24 80.2799C380.46 78.1899 386.25 77.1499 392.61 77.1499ZM370.85 121.29C370.85 129.64 372.52 136.26 375.86 141.17C379.2 146.07 384.31 148.53 391.2 148.53C394.64 148.53 397.77 147.85 400.59 146.5C403.41 145.14 405.81 143.27 407.79 140.87C409.77 138.47 411.29 135.6 412.33 132.26C413.48 128.82 414.05 125.01 414.05 120.83C414.05 116.65 413.48 112.9 412.33 109.56C411.29 106.12 409.77 103.19 407.79 100.79C405.81 98.2899 403.41 96.4099 400.59 95.1599C397.77 93.7999 394.64 93.1299 391.2 93.1299C387.76 93.1299 384.78 93.8099 382.28 95.1599C379.78 96.5199 377.64 98.4499 375.86 100.95C374.19 103.45 372.94 106.43 372.1 109.87C371.26 113.31 370.85 117.12 370.85 121.3V121.29Z" fill="white"/>
<path d="M308.36 76.99C313.68 76.99 318.48 78.03 322.76 80.12C327.14 82.1 330.85 84.97 333.87 88.73C336.9 92.49 339.24 97.08 340.91 102.5C342.58 107.82 343.41 113.87 343.41 120.66C343.41 127.45 342.58 133.39 340.91 138.82C339.24 144.14 336.89 148.68 333.87 152.44C330.84 156.2 327.14 159.07 322.76 161.05C318.38 163.14 313.47 164.18 308.05 164.18C298.87 164.18 291.93 161.36 287.23 155.73C282.53 149.99 279.35 141.9 277.68 131.47H280.18V195.72H259.99V78.99H280.18V109.39L278.45 109.55C278.87 105.69 279.81 101.83 281.27 97.97C282.73 94.11 284.71 90.61 287.22 87.48C289.72 84.35 292.7 81.85 296.14 79.97C299.69 77.99 303.76 77 308.35 77L308.36 76.99ZM280.19 121.29C280.19 129.64 281.86 136.26 285.2 141.17C288.54 146.07 293.65 148.53 300.54 148.53C303.98 148.53 307.11 147.85 309.93 146.5C312.75 145.14 315.15 143.27 317.13 140.87C319.11 138.47 320.63 135.6 321.67 132.26C322.82 128.82 323.39 125.01 323.39 120.83C323.39 116.65 322.82 112.9 321.67 109.56C320.63 106.12 319.11 103.19 317.13 100.79C315.15 98.29 312.75 96.41 309.93 95.16C307.11 93.8 303.98 93.13 300.54 93.13C297.1 93.13 294.12 93.81 291.62 95.16C289.12 96.52 286.98 98.45 285.2 100.95C283.53 103.45 282.28 106.43 281.44 109.87C280.61 113.31 280.19 117.12 280.19 121.3V121.29Z" fill="white"/>
</g>
<defs>
<clipPath id="clip0_25_1152">
<rect width="780" height="161.44" fill="white" transform="translate(40 40)"/>
</clipPath>
</defs>
</svg>
