<svg width="1139" height="174" viewBox="0 0 1139 174" fill="none" xmlns="http://www.w3.org/2000/svg">
<g clip-path="url(#clip0_476_2452)">
<path d="M163.261 35.4581V1.04785H32.7476C23.6879 1.04785 14.9992 4.64681 8.59305 11.053C2.18685 17.4592 -1.41211 26.1479 -1.41211 35.2076V70.1189C-1.41211 79.1786 2.18685 87.8673 8.59305 94.2735C14.9992 100.68 23.6879 104.279 32.7476 104.279H136.206V138.666H1.04739V173.076H136.457C145.516 173.076 154.205 169.477 160.611 163.071C167.017 156.665 170.616 147.976 170.616 138.917V104.028C170.616 94.9684 167.017 86.2797 160.611 79.8735C154.205 73.4673 145.516 69.8684 136.457 69.8684H32.9981V35.4581H163.261Z" fill="white"/>
<path d="M198.81 35.2076V138.917C198.81 147.976 202.409 156.665 208.815 163.071C215.221 169.477 223.91 173.076 232.969 173.076H336.678C345.738 173.076 354.427 169.477 360.833 163.071C367.239 156.665 370.838 147.976 370.838 138.917V35.2076C370.838 26.1479 367.239 17.4592 360.833 11.053C354.427 4.64681 345.738 1.04785 336.678 1.04785H232.969C223.91 1.04785 215.221 4.64681 208.815 11.053C202.409 17.4592 198.81 26.1479 198.81 35.2076ZM336.428 138.666H233.151V35.4581H336.359L336.428 138.666Z" fill="white"/>
<path d="M564.774 35.2076V173.076H599.185V116.553H699.979V173.076H734.366V35.2076C734.366 26.1479 730.767 17.4592 724.361 11.053C717.955 4.64681 709.266 1.04785 700.206 1.04785H598.934C589.874 1.04785 581.186 4.64681 574.78 11.053C568.373 17.4592 564.774 26.1479 564.774 35.2076ZM699.979 82.1431H599.207V35.4581H700.001L699.979 82.1431Z" fill="white"/>
<path d="M967.677 35.2076V173.076H1002.02V116.553H1102.79V173.076H1137.2V35.2076C1137.2 26.1479 1133.6 17.4592 1127.2 11.053C1120.79 4.64681 1112.1 1.04785 1103.04 1.04785H1001.84C992.777 1.04785 984.089 4.64681 977.682 11.053C971.276 17.4592 967.677 26.1479 967.677 35.2076ZM1102.84 82.1431H1002.02V35.4581H1102.79L1102.84 82.1431Z" fill="white"/>
<path d="M902.682 1.04785V138.666H889.018L839.555 15.3722C837.867 11.1463 834.951 7.52321 831.184 4.97003C827.418 2.41685 822.972 1.05073 818.422 1.04785H787.792C781.752 1.04785 775.959 3.44716 771.689 7.71796C767.418 11.9888 765.019 17.7812 765.019 23.821V173.076H799.338V35.4581H813.115L862.442 158.775C864.135 163 867.056 166.621 870.827 169.17C874.598 171.719 879.047 173.08 883.598 173.076H914.228C920.268 173.076 926.061 170.677 930.331 166.406C934.602 162.135 937.002 156.343 937.002 150.303V1.04785H902.682Z" fill="white"/>
<path d="M435.833 138.666V1.04785H401.468V138.917C401.468 147.976 405.067 156.665 411.473 163.071C417.879 169.477 426.568 173.076 435.628 173.076H539.086V138.666H435.833Z" fill="white"/>
</g>
<defs>
<clipPath id="clip0_476_2452">
<rect width="1138.66" height="173.076" fill="white"/>
</clipPath>
</defs>
</svg>
