<svg width="465" height="244" viewBox="0 0 465 244" fill="none" xmlns="http://www.w3.org/2000/svg">
<g clip-path="url(#clip0_1988_12920)">
<path d="M406.16 150.768C406.16 157.388 404.7 162.898 401.83 167.148C398.99 171.408 395.42 174.608 391.21 176.668C387.04 178.728 382.88 179.778 378.86 179.778C372.18 179.778 366.6 177.478 362.3 172.948C358.02 168.398 355.86 162.188 355.86 154.488V84.8984H337V155.638C337 165.088 338.57 173.048 341.68 179.308C344.8 185.558 349.17 190.318 354.66 193.448C360.12 196.518 366.44 198.078 373.44 198.078C381.9 198.078 389.02 196.068 394.6 192.108C399.64 188.488 403.52 184.098 406.16 179.048V196.648H425.02V84.8984H406.16V150.778V150.768Z" fill="white"/>
<path d="M308.871 126.158C304.531 123.078 299.911 120.608 295.141 118.818C290.491 117.068 286.211 115.668 282.401 114.658L267.461 110.638C264.781 109.938 261.801 109.008 258.621 107.878C255.461 106.718 252.391 105.228 249.521 103.468C246.701 101.688 244.351 99.4586 242.531 96.8286C240.791 94.1986 239.911 90.9986 239.911 87.3086C239.911 82.8786 241.191 78.8686 243.721 75.3986C246.311 71.8886 249.981 69.0886 254.601 67.0786C259.311 65.0486 264.901 64.0186 271.211 64.0186C279.831 64.0186 287.191 65.9786 293.101 69.8586C298.911 73.6686 302.271 79.0986 303.091 85.9986L303.191 86.8786H322.261L322.221 85.8486C321.981 78.2886 319.601 71.4386 315.171 65.4986C310.801 59.5786 304.801 54.8586 297.351 51.4686C289.921 48.0386 281.311 46.3086 271.781 46.3086C262.251 46.3086 253.671 48.0686 246.001 51.5386C238.351 54.9786 232.161 59.8886 227.601 66.1486C223.061 72.3886 220.761 79.7986 220.761 88.1686C220.761 98.2786 224.241 106.578 231.091 112.838C237.841 119.008 247.111 123.818 258.641 127.138L276.651 132.288C281.721 133.698 286.511 135.368 290.881 137.248C295.151 139.088 298.641 141.498 301.251 144.428C303.781 147.268 305.071 151.038 305.071 155.628C305.071 160.708 303.561 165.208 300.571 169.008C297.551 172.808 293.381 175.828 288.191 177.988C282.961 180.118 276.951 181.198 270.351 181.198C264.681 181.198 259.301 180.348 254.391 178.678C249.571 176.978 245.521 174.378 242.371 170.948C239.291 167.508 237.501 163.088 237.051 157.808L236.971 156.898H216.691L216.771 157.968C217.351 166.118 219.891 173.388 224.321 179.558C228.791 185.728 234.981 190.598 242.731 194.038C250.491 197.458 259.791 199.198 270.361 199.198C281.701 199.198 291.491 197.268 299.441 193.458C307.481 189.628 313.681 184.388 317.851 177.878C322.081 171.358 324.231 163.968 324.231 155.898C324.231 148.888 322.761 142.878 319.871 138.028C317.001 133.208 313.301 129.218 308.871 126.148V126.158Z" fill="white"/>
<path d="M464.422 56.1644C464.422 52.7444 463.112 49.7844 460.542 47.3644C458.022 44.9544 454.962 43.7344 451.422 43.7344C447.882 43.7344 444.802 44.9544 442.232 47.3744C439.702 49.7944 438.422 52.7544 438.422 56.1744C438.422 59.5944 439.702 62.5444 442.242 64.9744C444.802 67.3844 447.892 68.6044 451.432 68.6044C454.972 68.6044 457.742 67.4944 460.182 65.3144L460.292 65.2144C460.382 65.1344 460.472 65.0544 460.562 64.9644L460.922 64.6144C463.262 62.2544 464.442 59.4144 464.442 56.1644H464.422Z" fill="white"/>
<path d="M460.7 84.8867H441.84V196.637H460.7V84.8867Z" fill="white"/>
<path fill-rule="evenodd" clip-rule="evenodd" d="M151.94 101.336C161.84 113.766 167.76 129.486 167.76 146.586C167.76 163.686 161.66 179.886 151.5 192.386L150.62 193.466L150.39 192.096C150.19 190.936 149.96 189.756 149.69 188.576C144.6 166.216 128.02 147.046 100.73 131.516C82.3 121.056 71.75 108.476 68.98 94.1661C67.19 84.9161 68.52 75.6261 71.09 67.6661C73.66 59.7161 77.48 53.0461 80.73 49.0361L91.35 36.0561C93.21 33.7761 96.7 33.7761 98.56 36.0561L151.95 101.336H151.94ZM168.73 88.3661L97.57 1.36609C96.21 -0.293906 93.67 -0.293906 92.31 1.36609L21.16 88.3661L20.93 88.6561C7.84 104.906 0 125.556 0 148.036C0 200.386 42.51 242.826 94.94 242.826C147.37 242.826 189.88 200.386 189.88 148.036C189.88 125.556 182.04 104.906 168.95 88.6661L168.72 88.3761L168.73 88.3661ZM38.19 101.056L44.55 93.2661L44.74 94.7061C44.89 95.8461 45.08 96.9861 45.3 98.1361C49.42 119.746 64.13 137.756 88.72 151.706C110.1 163.876 122.55 177.866 126.13 193.206C127.63 199.606 127.89 205.906 127.24 211.416L127.2 211.756L126.89 211.906C117.24 216.616 106.39 219.266 94.93 219.266C54.72 219.266 22.12 186.726 22.12 146.576C22.12 129.336 28.13 113.506 38.17 101.036L38.19 101.056Z" fill="white"/>
</g>
<defs>
<clipPath id="clip0_1988_12920">
<rect width="465" height="243" fill="white" transform="translate(0 0.117188)"/>
</clipPath>
</defs>
</svg>
